<svg xmlns="http://www.w3.org/2000/svg" xmlns:xlink="http://www.w3.org/1999/xlink" width="74" zoomAndPan="magnify" viewBox="0 0 55.5 59.249999" height="79" preserveAspectRatio="xMidYMid meet" version="1.0"><defs><clipPath id="id1"><path d="M 0.101562 0 L 54.90625 0 L 54.90625 58.289062 L 0.101562 58.289062 Z M 0.101562 0 " clip-rule="nonzero"/></clipPath><clipPath id="id2"><path d="M 27 0 L 54.90625 0 L 54.90625 58.289062 L 27 58.289062 Z M 27 0 " clip-rule="nonzero"/></clipPath></defs><g clip-path="url(#id1)"><path fill="rgb(88.62915%, 19.60907%, 21.569824%)" d="M 0.171875 9.664062 L 27.382812 0 L 55.328125 9.492188 L 50.804688 45.375 L 27.382812 58.300781 L 4.332031 45.542969 Z M 0.171875 9.664062 " fill-opacity="1" fill-rule="nonzero"/></g><g clip-path="url(#id2)"><path fill="rgb(70.979309%, 18.03894%, 19.219971%)" d="M 55.328125 9.492188 L 27.382812 0 L 27.382812 58.296875 L 50.804688 45.390625 L 55.328125 9.492188 L 55.328125 9.488281 Z M 55.328125 9.492188 " fill-opacity="1" fill-rule="nonzero"/></g><path fill="rgb(100%, 100%, 100%)" d="M 27.425781 6.804688 L 10.46875 44.40625 L 16.804688 44.296875 L 20.210938 35.816406 L 35.421875 35.816406 L 39.148438 44.40625 L 45.203125 44.511719 L 27.425781 6.804688 L 27.425781 6.808594 Z M 27.472656 18.851562 L 33.199219 30.792969 L 22.429688 30.792969 Z M 27.472656 18.851562 " fill-opacity="1" fill-rule="nonzero"/></svg>