<svg xmlns="http://www.w3.org/2000/svg" width="810" viewBox="0 0 810 810" height="810" version="1.0"><defs><clipPath id="a"><path d="M 389.199219 376.015625 L 443.199219 376.015625 L 443.199219 433.015625 L 389.199219 433.015625 Z M 389.199219 376.015625"/></clipPath><clipPath id="b"><path d="M 415 376.015625 L 443.199219 376.015625 L 443.199219 433.015625 L 415 433.015625 Z M 415 376.015625"/></clipPath></defs><g clip-path="url(#a)"><path fill="#E23237" d="M 389.269531 385.464844 L 415.839844 376.015625 L 443.125 385.296875 L 438.710938 420.386719 L 415.839844 433.027344 L 393.332031 420.554688 Z M 389.269531 385.464844"/></g><g clip-path="url(#b)"><path fill="#B52E31" d="M 443.125 385.296875 L 415.839844 376.015625 L 415.839844 433.023438 L 438.710938 420.40625 Z M 443.125 385.296875"/></g><path fill="#FFF" d="M 415.882812 382.671875 L 399.328125 419.441406 L 405.511719 419.335938 L 408.835938 411.042969 L 423.6875 411.042969 L 427.328125 419.441406 L 433.238281 419.546875 L 415.882812 382.671875 L 415.882812 382.675781 Z M 415.925781 394.453125 L 421.519531 406.128906 L 411.003906 406.128906 Z M 415.925781 394.453125"/></svg>