<svg xmlns="http://www.w3.org/2000/svg" xmlns:xlink="http://www.w3.org/1999/xlink" width="74" zoomAndPan="magnify" viewBox="0 0 55.5 55.499996" height="74" preserveAspectRatio="xMidYMid meet" version="1.0"><defs><clipPath id="id1"><path d="M 0 0 L 55.003906 0 L 55.003906 55.003906 L 0 55.003906 Z M 0 0 " clip-rule="nonzero"/></clipPath></defs><g clip-path="url(#id1)"><path fill="rgb(100%, 83.918762%, 0%)" d="M 0 0 L 55.5 0 L 55.5 55.5 L 0 55.5 Z M 0 0 " fill-opacity="1" fill-rule="nonzero"/></g><path fill="rgb(0%, 0%, 0.389099%)" d="M 36.289062 41.542969 C 37.355469 43.277344 38.515625 44.9375 40.96875 44.9375 C 43.03125 44.9375 44.113281 43.910156 44.113281 42.492188 C 44.113281 40.796875 42.996094 40.191406 40.726562 39.203125 L 39.480469 38.675781 C 35.890625 37.152344 33.503906 35.242188 33.503906 31.210938 C 33.503906 27.496094 36.347656 24.667969 40.792969 24.667969 C 43.957031 24.667969 46.230469 25.765625 47.871094 28.636719 L 43.996094 31.113281 C 43.144531 29.589844 42.222656 28.988281 40.792969 28.988281 C 39.335938 28.988281 38.410156 29.910156 38.410156 31.113281 C 38.410156 32.597656 39.335938 33.199219 41.472656 34.121094 L 42.714844 34.652344 C 46.945312 36.453125 49.332031 38.292969 49.332031 42.429688 C 49.332031 46.890625 45.8125 49.332031 41.085938 49.332031 C 36.460938 49.332031 33.835938 47.011719 32.375 44.140625 Z M 18.425781 41.667969 C 19.207031 43.066406 20.390625 44.140625 22.097656 44.140625 C 23.726562 44.140625 24.667969 43.496094 24.667969 40.992188 L 24.667969 24.667969 L 29.804688 24.667969 L 29.804688 41.78125 C 29.804688 46.972656 26.792969 49.332031 22.398438 49.332031 C 18.425781 49.332031 15.558594 46.640625 14.386719 44.140625 Z M 18.425781 41.667969 " fill-opacity="1" fill-rule="nonzero"/></svg>