<svg xmlns="http://www.w3.org/2000/svg" width="810" viewBox="0 0 810 810" height="810" version="1.0"><defs><clipPath id="a"><path d="M 243 306.585938 L 567 306.585938 L 567 503.085938 L 243 503.085938 Z M 243 306.585938"/></clipPath></defs><g clip-path="url(#a)"><path fill="#FFF" d="M 340.761719 503.164062 L 323.980469 464.714844 L 486.078125 464.714844 L 452.871094 424.246094 L 502.28125 424.246094 L 567.042969 503.164062 Z M 464.953125 454.726562 L 412.152344 390.375 L 374.328125 390.375 L 397.460938 418.566406 L 303.84375 418.566406 L 319.625 454.726562 Z M 292.058594 503.164062 L 243.101562 306.664062 L 279.078125 503.164062 L 243.101562 503.164062 L 243.101562 306.652344 L 243.101562 306.664062 L 328.847656 503.164062 Z M 376.339844 408.582031 L 341.945312 366.667969 L 281.203125 366.667969 L 299.492188 408.582031 L 376.339844 408.582031" fill-rule="evenodd"/></g></svg>